<mxfile host="app.diagrams.net" agent="Mozilla/5.0 (Windows NT 10.0; Win64; x64) AppleWebKit/537.36 (KHTML, like Gecko) Chrome/129.0.0.0 Safari/537.36 Edg/129.0.0.0" version="24.7.17">
  <diagram name="Страница — 1" id="c5vcmPQGKA1CclteZMsS">
    <mxGraphModel dx="2977" dy="1643" grid="1" gridSize="10" guides="1" tooltips="1" connect="1" arrows="1" fold="1" page="1" pageScale="1" pageWidth="827" pageHeight="1169" math="0" shadow="0">
      <root>
        <mxCell id="0" />
        <mxCell id="1" parent="0" />
        <mxCell id="c9-E3BqU5SS-ii1urZCW-23" value="" style="rounded=0;whiteSpace=wrap;html=1;strokeWidth=0;fillColor=#ffe6cc;strokeColor=#000000;shadow=1;" vertex="1" parent="1">
          <mxGeometry x="641" y="20" width="200" height="120" as="geometry" />
        </mxCell>
        <mxCell id="c9-E3BqU5SS-ii1urZCW-26" value="" style="endArrow=classic;html=1;rounded=0;" edge="1" parent="1">
          <mxGeometry width="50" height="50" relative="1" as="geometry">
            <mxPoint x="841" y="60" as="sourcePoint" />
            <mxPoint x="1081" y="60" as="targetPoint" />
          </mxGeometry>
        </mxCell>
        <mxCell id="c9-E3BqU5SS-ii1urZCW-27" value="" style="endArrow=classic;html=1;rounded=0;" edge="1" parent="1">
          <mxGeometry width="50" height="50" relative="1" as="geometry">
            <mxPoint x="841" y="140" as="sourcePoint" />
            <mxPoint x="961" y="220" as="targetPoint" />
          </mxGeometry>
        </mxCell>
        <mxCell id="c9-E3BqU5SS-ii1urZCW-28" value="" style="endArrow=classic;html=1;rounded=0;exitX=1;exitY=0.5;exitDx=0;exitDy=0;" edge="1" parent="1">
          <mxGeometry width="50" height="50" relative="1" as="geometry">
            <mxPoint x="841" y="100" as="sourcePoint" />
            <mxPoint x="921" y="100" as="targetPoint" />
          </mxGeometry>
        </mxCell>
        <mxCell id="c9-E3BqU5SS-ii1urZCW-29" value="&lt;font style=&quot;font-size: 14px;&quot;&gt;&lt;i&gt;Установить аватар для события&lt;/i&gt;&lt;/font&gt;" style="rounded=1;whiteSpace=wrap;html=1;fillColor=#ffe6cc;strokeColor=#d79b00;" vertex="1" parent="1">
          <mxGeometry x="1082" y="40" width="160" height="50" as="geometry" />
        </mxCell>
        <mxCell id="c9-E3BqU5SS-ii1urZCW-30" value="&lt;i&gt;&lt;font style=&quot;font-size: 14px;&quot;&gt;Открыть календарь события&lt;/font&gt;&lt;/i&gt;" style="rounded=1;whiteSpace=wrap;html=1;fillColor=#ffe6cc;strokeColor=#d79b00;" vertex="1" parent="1">
          <mxGeometry x="921" y="80" width="140" height="40" as="geometry" />
        </mxCell>
        <mxCell id="c9-E3BqU5SS-ii1urZCW-31" value="&lt;i&gt;&lt;font style=&quot;font-size: 14px;&quot;&gt;Открыть свою статистику&lt;/font&gt;&lt;/i&gt;" style="rounded=1;whiteSpace=wrap;html=1;gradientColor=#ffe6cc;fillColor=#dae8fc;" vertex="1" parent="1">
          <mxGeometry x="961" y="190" width="160" height="50" as="geometry" />
        </mxCell>
        <mxCell id="c9-E3BqU5SS-ii1urZCW-32" value="" style="endArrow=classic;html=1;rounded=0;entryX=0.994;entryY=0.382;entryDx=0;entryDy=0;entryPerimeter=0;" edge="1" parent="1" target="c9-E3BqU5SS-ii1urZCW-36">
          <mxGeometry width="50" height="50" relative="1" as="geometry">
            <mxPoint x="640" y="60" as="sourcePoint" />
            <mxPoint x="421" y="65.00000000000006" as="targetPoint" />
          </mxGeometry>
        </mxCell>
        <mxCell id="c9-E3BqU5SS-ii1urZCW-34" value="" style="endArrow=classic;html=1;rounded=0;exitX=0;exitY=0.5;exitDx=0;exitDy=0;" edge="1" parent="1">
          <mxGeometry width="50" height="50" relative="1" as="geometry">
            <mxPoint x="641" y="100" as="sourcePoint" />
            <mxPoint x="561" y="100" as="targetPoint" />
          </mxGeometry>
        </mxCell>
        <mxCell id="c9-E3BqU5SS-ii1urZCW-35" value="" style="endArrow=classic;html=1;rounded=0;exitX=0.01;exitY=0.827;exitDx=0;exitDy=0;exitPerimeter=0;" edge="1" parent="1">
          <mxGeometry width="50" height="50" relative="1" as="geometry">
            <mxPoint x="643" y="139.24" as="sourcePoint" />
            <mxPoint x="521" y="220" as="targetPoint" />
          </mxGeometry>
        </mxCell>
        <mxCell id="c9-E3BqU5SS-ii1urZCW-36" value="&lt;font style=&quot;font-size: 14px;&quot;&gt;&lt;i&gt;Установить имя для события&lt;/i&gt;&lt;/font&gt;" style="rounded=1;whiteSpace=wrap;html=1;fillColor=#FFE6CC;strokeColor=#d79b00;gradientColor=none;" vertex="1" parent="1">
          <mxGeometry x="241" y="40" width="160" height="50" as="geometry" />
        </mxCell>
        <mxCell id="c9-E3BqU5SS-ii1urZCW-37" value="&lt;i&gt;&lt;font style=&quot;font-size: 14px;&quot;&gt;Открыть таймеры события&lt;/font&gt;&lt;/i&gt;" style="rounded=1;whiteSpace=wrap;html=1;fillColor=#ffe6cc;strokeColor=#d79b00;" vertex="1" parent="1">
          <mxGeometry x="421" y="80" width="140" height="40" as="geometry" />
        </mxCell>
        <mxCell id="c9-E3BqU5SS-ii1urZCW-38" value="&lt;font style=&quot;font-size: 14px;&quot;&gt;&lt;i&gt;Отобразить список заданий&lt;/i&gt;&lt;/font&gt;" style="rounded=1;whiteSpace=wrap;html=1;gradientColor=#dae8fc;fillColor=#ffe6cc;" vertex="1" parent="1">
          <mxGeometry x="361" y="190" width="160" height="50" as="geometry" />
        </mxCell>
        <mxCell id="c9-E3BqU5SS-ii1urZCW-41" value="" style="rounded=0;whiteSpace=wrap;html=1;strokeWidth=0;fillColor=#dae8fc;strokeColor=#6c8ebf;shadow=1;glass=0;" vertex="1" parent="1">
          <mxGeometry x="341" y="343" width="200" height="120" as="geometry" />
        </mxCell>
        <mxCell id="c9-E3BqU5SS-ii1urZCW-42" value="&lt;h1 style=&quot;margin-top: 0px;&quot;&gt;&lt;font style=&quot;font-size: 25px;&quot;&gt;Пользователь&lt;/font&gt;&lt;/h1&gt;&lt;div&gt;&lt;font style=&quot;font-size: 20px;&quot;&gt;(личный кабинет)&lt;/font&gt;&lt;/div&gt;" style="text;html=1;whiteSpace=wrap;overflow=hidden;rounded=0;align=center;" vertex="1" parent="1">
          <mxGeometry x="341" y="360" width="200" height="120" as="geometry" />
        </mxCell>
        <mxCell id="c9-E3BqU5SS-ii1urZCW-43" value="" style="endArrow=classic;html=1;rounded=0;exitX=0;exitY=1;exitDx=0;exitDy=0;entryX=1;entryY=0.25;entryDx=0;entryDy=0;" edge="1" parent="1" target="c9-E3BqU5SS-ii1urZCW-44">
          <mxGeometry width="50" height="50" relative="1" as="geometry">
            <mxPoint x="362" y="200" as="sourcePoint" />
            <mxPoint x="241" y="200" as="targetPoint" />
          </mxGeometry>
        </mxCell>
        <mxCell id="c9-E3BqU5SS-ii1urZCW-44" value="&lt;font style=&quot;font-size: 14px;&quot;&gt;&lt;i&gt;Сортировка по дедлайнам&lt;/i&gt;&lt;/font&gt;" style="rounded=1;whiteSpace=wrap;html=1;fillColor=#dae8fc;strokeColor=#6c8ebf;gradientColor=#ffe6cc;" vertex="1" parent="1">
          <mxGeometry x="120.5" y="150" width="159" height="60" as="geometry" />
        </mxCell>
        <mxCell id="c9-E3BqU5SS-ii1urZCW-45" value="" style="endArrow=classic;html=1;rounded=0;exitX=0.5;exitY=0;exitDx=0;exitDy=0;entryX=0.5;entryY=1;entryDx=0;entryDy=0;" edge="1" parent="1" source="c9-E3BqU5SS-ii1urZCW-41" target="c9-E3BqU5SS-ii1urZCW-38">
          <mxGeometry width="50" height="50" relative="1" as="geometry">
            <mxPoint x="750" y="290" as="sourcePoint" />
            <mxPoint x="280" y="250" as="targetPoint" />
          </mxGeometry>
        </mxCell>
        <mxCell id="c9-E3BqU5SS-ii1urZCW-46" value="" style="endArrow=classic;html=1;rounded=0;exitX=1;exitY=0;exitDx=0;exitDy=0;" edge="1" parent="1" source="c9-E3BqU5SS-ii1urZCW-41">
          <mxGeometry width="50" height="50" relative="1" as="geometry">
            <mxPoint x="750" y="290" as="sourcePoint" />
            <mxPoint x="600" y="280" as="targetPoint" />
          </mxGeometry>
        </mxCell>
        <mxCell id="c9-E3BqU5SS-ii1urZCW-47" value="" style="endArrow=classic;html=1;rounded=0;entryX=0;entryY=0.75;entryDx=0;entryDy=0;" edge="1" parent="1" target="c9-E3BqU5SS-ii1urZCW-31">
          <mxGeometry width="50" height="50" relative="1" as="geometry">
            <mxPoint x="540" y="400" as="sourcePoint" />
            <mxPoint x="690" y="400" as="targetPoint" />
          </mxGeometry>
        </mxCell>
        <mxCell id="c9-E3BqU5SS-ii1urZCW-48" value="" style="endArrow=classic;html=1;rounded=0;" edge="1" parent="1">
          <mxGeometry width="50" height="50" relative="1" as="geometry">
            <mxPoint x="540" y="460" as="sourcePoint" />
            <mxPoint x="600" y="520" as="targetPoint" />
          </mxGeometry>
        </mxCell>
        <mxCell id="c9-E3BqU5SS-ii1urZCW-49" value="" style="endArrow=classic;html=1;rounded=0;" edge="1" parent="1">
          <mxGeometry width="50" height="50" relative="1" as="geometry">
            <mxPoint x="340" y="460" as="sourcePoint" />
            <mxPoint x="280" y="520" as="targetPoint" />
          </mxGeometry>
        </mxCell>
        <mxCell id="c9-E3BqU5SS-ii1urZCW-50" value="" style="endArrow=classic;html=1;rounded=0;exitX=0;exitY=0;exitDx=0;exitDy=0;" edge="1" parent="1" source="c9-E3BqU5SS-ii1urZCW-41">
          <mxGeometry width="50" height="50" relative="1" as="geometry">
            <mxPoint x="581" y="380" as="sourcePoint" />
            <mxPoint x="280" y="280" as="targetPoint" />
          </mxGeometry>
        </mxCell>
        <mxCell id="c9-E3BqU5SS-ii1urZCW-51" value="" style="endArrow=classic;html=1;rounded=0;" edge="1" parent="1">
          <mxGeometry width="50" height="50" relative="1" as="geometry">
            <mxPoint x="440" y="460" as="sourcePoint" />
            <mxPoint x="440" y="570" as="targetPoint" />
          </mxGeometry>
        </mxCell>
        <mxCell id="c9-E3BqU5SS-ii1urZCW-52" value="" style="endArrow=classic;html=1;rounded=0;exitX=0;exitY=0.25;exitDx=0;exitDy=0;" edge="1" parent="1">
          <mxGeometry width="50" height="50" relative="1" as="geometry">
            <mxPoint x="341" y="400" as="sourcePoint" />
            <mxPoint x="200" y="400" as="targetPoint" />
          </mxGeometry>
        </mxCell>
        <mxCell id="c9-E3BqU5SS-ii1urZCW-53" value="&lt;font style=&quot;font-size: 14px;&quot;&gt;&lt;i&gt;Открыть свои таймеры&lt;/i&gt;&lt;/font&gt;" style="rounded=1;whiteSpace=wrap;html=1;shadow=0;fillColor=#dae8fc;strokeColor=#6c8ebf;" vertex="1" parent="1">
          <mxGeometry x="120.5" y="250" width="159" height="60" as="geometry" />
        </mxCell>
        <mxCell id="c9-E3BqU5SS-ii1urZCW-54" value="&lt;font style=&quot;font-size: 14px;&quot;&gt;&lt;i&gt;Изменить имя&lt;/i&gt;&lt;/font&gt;" style="rounded=1;whiteSpace=wrap;html=1;fillColor=#dae8fc;strokeColor=#6c8ebf;" vertex="1" parent="1">
          <mxGeometry x="41" y="370" width="159" height="60" as="geometry" />
        </mxCell>
        <mxCell id="c9-E3BqU5SS-ii1urZCW-55" value="&lt;font style=&quot;font-size: 14px;&quot;&gt;&lt;i&gt;Установить аватар&lt;/i&gt;&lt;/font&gt;" style="rounded=1;whiteSpace=wrap;html=1;fillColor=#dae8fc;strokeColor=#6c8ebf;" vertex="1" parent="1">
          <mxGeometry x="600" y="250" width="159" height="60" as="geometry" />
        </mxCell>
        <mxCell id="c9-E3BqU5SS-ii1urZCW-56" value="&lt;font style=&quot;font-size: 14px;&quot;&gt;&lt;i&gt;Отобразить события за определённый период&lt;/i&gt;&lt;/font&gt;" style="rounded=1;whiteSpace=wrap;html=1;fillColor=#dae8fc;strokeColor=#6c8ebf;" vertex="1" parent="1">
          <mxGeometry x="121.5" y="490" width="159" height="60" as="geometry" />
        </mxCell>
        <mxCell id="c9-E3BqU5SS-ii1urZCW-57" value="&lt;font style=&quot;font-size: 14px;&quot;&gt;&lt;i&gt;Отобразить список заблокированных пользователей&lt;/i&gt;&lt;/font&gt;" style="rounded=1;whiteSpace=wrap;html=1;fillColor=#dae8fc;strokeColor=#6c8ebf;" vertex="1" parent="1">
          <mxGeometry x="600" y="490" width="159" height="60" as="geometry" />
        </mxCell>
        <mxCell id="c9-E3BqU5SS-ii1urZCW-58" value="&lt;font style=&quot;font-size: 14px;&quot;&gt;&lt;i&gt;Открыть календарь пользователя&lt;/i&gt;&lt;/font&gt;" style="rounded=1;whiteSpace=wrap;html=1;fillColor=#dae8fc;strokeColor=#6c8ebf;" vertex="1" parent="1">
          <mxGeometry x="361" y="570" width="159" height="60" as="geometry" />
        </mxCell>
        <mxCell id="c9-E3BqU5SS-ii1urZCW-75" value="&lt;span style=&quot;font-size: 14px;&quot;&gt;&lt;i&gt;Зарегистрироваться&lt;/i&gt;&lt;/span&gt;" style="rounded=1;whiteSpace=wrap;html=1;fillColor=#f8cecc;strokeColor=#b85450;" vertex="1" parent="1">
          <mxGeometry x="308" y="720" width="160" height="50" as="geometry" />
        </mxCell>
        <mxCell id="c9-E3BqU5SS-ii1urZCW-76" value="" style="rounded=0;whiteSpace=wrap;html=1;strokeWidth=0;shadow=1;fillColor=#f8cecc;strokeColor=#b85450;" vertex="1" parent="1">
          <mxGeometry x="288" y="870" width="200" height="120" as="geometry" />
        </mxCell>
        <mxCell id="c9-E3BqU5SS-ii1urZCW-77" value="&lt;h1 style=&quot;margin-top: 0px; line-height: 100%;&quot;&gt;&lt;span style=&quot;background-color: initial;&quot;&gt;&lt;font style=&quot;font-size: 30px;&quot;&gt;Аноним&lt;/font&gt;&lt;/span&gt;&lt;/h1&gt;&lt;h1 style=&quot;margin-top: 0px; line-height: 105%;&quot;&gt;&lt;span style=&quot;background-color: initial; font-weight: normal;&quot;&gt;&lt;font style=&quot;font-size: 16px;&quot;&gt;(не зарегистрированный пользователь)&lt;/font&gt;&lt;/span&gt;&lt;br&gt;&lt;/h1&gt;" style="text;html=1;whiteSpace=wrap;overflow=hidden;rounded=0;align=center;strokeWidth=2;" vertex="1" parent="1">
          <mxGeometry x="290" y="880" width="190" height="100" as="geometry" />
        </mxCell>
        <mxCell id="c9-E3BqU5SS-ii1urZCW-78" value="" style="endArrow=classic;html=1;rounded=0;exitX=0.5;exitY=0;exitDx=0;exitDy=0;entryX=0.5;entryY=1;entryDx=0;entryDy=0;" edge="1" parent="1" source="c9-E3BqU5SS-ii1urZCW-76" target="c9-E3BqU5SS-ii1urZCW-75">
          <mxGeometry width="50" height="50" relative="1" as="geometry">
            <mxPoint x="697" y="820" as="sourcePoint" />
            <mxPoint x="227" y="780" as="targetPoint" />
          </mxGeometry>
        </mxCell>
        <mxCell id="c9-E3BqU5SS-ii1urZCW-79" value="" style="endArrow=classic;html=1;rounded=0;exitX=0;exitY=0;exitDx=0;exitDy=0;" edge="1" parent="1" source="c9-E3BqU5SS-ii1urZCW-76">
          <mxGeometry width="50" height="50" relative="1" as="geometry">
            <mxPoint x="528" y="910" as="sourcePoint" />
            <mxPoint x="227" y="810" as="targetPoint" />
          </mxGeometry>
        </mxCell>
        <mxCell id="c9-E3BqU5SS-ii1urZCW-80" value="&lt;font style=&quot;font-size: 14px;&quot;&gt;&lt;i&gt;Ознакомиться с информацией о приложении&lt;/i&gt;&lt;/font&gt;" style="rounded=1;whiteSpace=wrap;html=1;fillColor=#f8cecc;strokeColor=#b85450;" vertex="1" parent="1">
          <mxGeometry x="70" y="780" width="159" height="60" as="geometry" />
        </mxCell>
        <mxCell id="c9-E3BqU5SS-ii1urZCW-81" value="&lt;h1 style=&quot;margin-top: 0px; font-size: 25px; line-height: 110%;&quot;&gt;&lt;font style=&quot;font-size: 25px;&quot;&gt;Пользователь&lt;/font&gt;&lt;/h1&gt;&lt;div style=&quot;line-height: 110%;&quot;&gt;&lt;font style=&quot;font-size: 20px;&quot;&gt;(личный кабинет события)&lt;/font&gt;&lt;/div&gt;" style="text;html=1;whiteSpace=wrap;overflow=hidden;rounded=0;align=center;" vertex="1" parent="1">
          <mxGeometry x="641" y="40" width="200" height="90" as="geometry" />
        </mxCell>
        <mxCell id="c9-E3BqU5SS-ii1urZCW-82" value="" style="rounded=0;whiteSpace=wrap;html=1;strokeWidth=0;shadow=1;fillColor=#e1d5e7;strokeColor=#9673a6;" vertex="1" parent="1">
          <mxGeometry x="1030" y="870" width="200" height="120" as="geometry" />
        </mxCell>
        <mxCell id="c9-E3BqU5SS-ii1urZCW-83" value="&lt;h1 style=&quot;margin-top: 0px; font-size: 25px;&quot;&gt;&lt;font style=&quot;font-size: 25px;&quot;&gt;Пользователь&lt;/font&gt;&lt;/h1&gt;&lt;div style=&quot;&quot;&gt;&lt;font style=&quot;font-size: 20px;&quot;&gt;(home page)&lt;/font&gt;&lt;/div&gt;" style="text;html=1;whiteSpace=wrap;overflow=hidden;rounded=0;align=center;" vertex="1" parent="1">
          <mxGeometry x="1030" y="890" width="200" height="90" as="geometry" />
        </mxCell>
        <mxCell id="c9-E3BqU5SS-ii1urZCW-84" value="Text" style="text;html=1;align=center;verticalAlign=middle;resizable=0;points=[];autosize=1;strokeColor=none;fillColor=none;" vertex="1" parent="1">
          <mxGeometry x="1087" y="1120" width="50" height="30" as="geometry" />
        </mxCell>
        <mxCell id="c9-E3BqU5SS-ii1urZCW-85" value="" style="endArrow=classic;html=1;rounded=0;" edge="1" parent="1">
          <mxGeometry width="50" height="50" relative="1" as="geometry">
            <mxPoint x="1230" y="910" as="sourcePoint" />
            <mxPoint x="1470" y="910" as="targetPoint" />
          </mxGeometry>
        </mxCell>
        <mxCell id="c9-E3BqU5SS-ii1urZCW-86" value="" style="endArrow=classic;html=1;rounded=0;" edge="1" parent="1">
          <mxGeometry width="50" height="50" relative="1" as="geometry">
            <mxPoint x="1230" y="990" as="sourcePoint" />
            <mxPoint x="1350" y="1070" as="targetPoint" />
          </mxGeometry>
        </mxCell>
        <mxCell id="c9-E3BqU5SS-ii1urZCW-87" value="" style="endArrow=classic;html=1;rounded=0;" edge="1" parent="1">
          <mxGeometry width="50" height="50" relative="1" as="geometry">
            <mxPoint x="1230" y="950" as="sourcePoint" />
            <mxPoint x="1310" y="950" as="targetPoint" />
          </mxGeometry>
        </mxCell>
        <mxCell id="c9-E3BqU5SS-ii1urZCW-88" value="&lt;font style=&quot;font-size: 14px;&quot;&gt;&lt;i&gt;Добавить пользователя в друзья&lt;/i&gt;&lt;/font&gt;" style="rounded=1;whiteSpace=wrap;html=1;fillColor=#e1d5e7;strokeColor=#9673a6;" vertex="1" parent="1">
          <mxGeometry x="1470" y="890" width="160" height="50" as="geometry" />
        </mxCell>
        <mxCell id="c9-E3BqU5SS-ii1urZCW-89" value="&lt;i&gt;&lt;font style=&quot;font-size: 14px;&quot;&gt;Создать событие&lt;/font&gt;&lt;/i&gt;" style="rounded=1;whiteSpace=wrap;html=1;fillColor=#e1d5e7;strokeColor=#9673a6;" vertex="1" parent="1">
          <mxGeometry x="1310" y="930" width="140" height="40" as="geometry" />
        </mxCell>
        <mxCell id="c9-E3BqU5SS-ii1urZCW-90" value="&lt;i&gt;&lt;font style=&quot;font-size: 14px;&quot;&gt;Добавить друга в событие&lt;/font&gt;&lt;/i&gt;" style="rounded=1;whiteSpace=wrap;html=1;fillColor=#e1d5e7;strokeColor=#9673a6;" vertex="1" parent="1">
          <mxGeometry x="1350" y="1040" width="160" height="50" as="geometry" />
        </mxCell>
        <mxCell id="c9-E3BqU5SS-ii1urZCW-91" value="" style="endArrow=classic;html=1;rounded=0;" edge="1" parent="1">
          <mxGeometry width="50" height="50" relative="1" as="geometry">
            <mxPoint x="1027" y="910" as="sourcePoint" />
            <mxPoint x="790" y="910" as="targetPoint" />
          </mxGeometry>
        </mxCell>
        <mxCell id="c9-E3BqU5SS-ii1urZCW-92" value="" style="endArrow=classic;html=1;rounded=0;exitX=0.5;exitY=1;exitDx=0;exitDy=0;" edge="1" parent="1">
          <mxGeometry width="50" height="50" relative="1" as="geometry">
            <mxPoint x="1129.38" y="990" as="sourcePoint" />
            <mxPoint x="1129.38" y="1100" as="targetPoint" />
          </mxGeometry>
        </mxCell>
        <mxCell id="c9-E3BqU5SS-ii1urZCW-93" value="" style="endArrow=classic;html=1;rounded=0;exitX=0.017;exitY=0.659;exitDx=0;exitDy=0;exitPerimeter=0;" edge="1" parent="1" source="c9-E3BqU5SS-ii1urZCW-83">
          <mxGeometry width="50" height="50" relative="1" as="geometry">
            <mxPoint x="990" y="960" as="sourcePoint" />
            <mxPoint x="950" y="950" as="targetPoint" />
          </mxGeometry>
        </mxCell>
        <mxCell id="c9-E3BqU5SS-ii1urZCW-94" value="" style="endArrow=classic;html=1;rounded=0;exitX=0;exitY=1;exitDx=0;exitDy=0;" edge="1" parent="1" source="c9-E3BqU5SS-ii1urZCW-82">
          <mxGeometry width="50" height="50" relative="1" as="geometry">
            <mxPoint x="1020" y="1000" as="sourcePoint" />
            <mxPoint x="910" y="1070" as="targetPoint" />
          </mxGeometry>
        </mxCell>
        <mxCell id="c9-E3BqU5SS-ii1urZCW-95" value="&lt;font style=&quot;font-size: 14px;&quot;&gt;&lt;i&gt;Открыть личный кабинет&lt;/i&gt;&lt;/font&gt;" style="rounded=1;whiteSpace=wrap;html=1;fillColor=#e1d5e7;strokeColor=#9673a6;" vertex="1" parent="1">
          <mxGeometry x="630" y="890" width="160" height="50" as="geometry" />
        </mxCell>
        <mxCell id="c9-E3BqU5SS-ii1urZCW-96" value="&lt;i&gt;&lt;font style=&quot;font-size: 14px;&quot;&gt;Открыть событие&lt;/font&gt;&lt;/i&gt;" style="rounded=1;whiteSpace=wrap;html=1;fillColor=#e1d5e7;strokeColor=#9673a6;" vertex="1" parent="1">
          <mxGeometry x="810" y="930" width="140" height="40" as="geometry" />
        </mxCell>
        <mxCell id="c9-E3BqU5SS-ii1urZCW-97" value="&lt;font style=&quot;font-size: 14px;&quot;&gt;&lt;i&gt;Найти пользователя&lt;/i&gt;&lt;/font&gt;" style="rounded=1;whiteSpace=wrap;html=1;fillColor=#e1d5e7;strokeColor=#9673a6;" vertex="1" parent="1">
          <mxGeometry x="750" y="1040" width="160" height="50" as="geometry" />
        </mxCell>
        <mxCell id="c9-E3BqU5SS-ii1urZCW-98" value="&lt;font style=&quot;font-size: 14px;&quot;&gt;&lt;i style=&quot;&quot;&gt;Начать чат с другом&lt;/i&gt;&lt;/font&gt;" style="rounded=1;whiteSpace=wrap;html=1;fillColor=#e1d5e7;strokeColor=#9673a6;" vertex="1" parent="1">
          <mxGeometry x="1048.5" y="1100" width="163" height="40" as="geometry" />
        </mxCell>
        <mxCell id="c9-E3BqU5SS-ii1urZCW-99" value="Text" style="text;html=1;align=center;verticalAlign=middle;whiteSpace=wrap;rounded=0;" vertex="1" parent="1">
          <mxGeometry x="1220" y="1020" width="60" height="30" as="geometry" />
        </mxCell>
        <mxCell id="c9-E3BqU5SS-ii1urZCW-100" value="&lt;font style=&quot;font-size: 14px;&quot;&gt;&lt;i style=&quot;&quot;&gt;Назначить человека&lt;/i&gt;&lt;/font&gt;&lt;div&gt;&lt;font style=&quot;font-size: 14px;&quot;&gt;&lt;i style=&quot;&quot;&gt;на задание&lt;/i&gt;&lt;/font&gt;&lt;/div&gt;" style="rounded=1;whiteSpace=wrap;html=1;fillColor=#d5e8d4;strokeColor=#82b366;" vertex="1" parent="1">
          <mxGeometry x="1159" y="270" width="160" height="50" as="geometry" />
        </mxCell>
        <mxCell id="c9-E3BqU5SS-ii1urZCW-101" value="" style="rounded=0;whiteSpace=wrap;html=1;strokeWidth=0;fillColor=#d5e8d4;strokeColor=#000000;shadow=1;" vertex="1" parent="1">
          <mxGeometry x="1139" y="420" width="200" height="120" as="geometry" />
        </mxCell>
        <mxCell id="c9-E3BqU5SS-ii1urZCW-102" value="&lt;h1 style=&quot;margin-top: 0px; font-size: 23px;&quot;&gt;&lt;span style=&quot;background-color: initial;&quot;&gt;&lt;font style=&quot;font-size: 23px;&quot;&gt;Администратор&lt;/font&gt;&lt;/span&gt;&lt;/h1&gt;&lt;h1 style=&quot;margin-top: 0px;&quot;&gt;&lt;span style=&quot;background-color: initial; font-weight: normal;&quot;&gt;&lt;font style=&quot;font-size: 20px;&quot;&gt;(окно события)&lt;/font&gt;&lt;/span&gt;&lt;br&gt;&lt;/h1&gt;" style="text;html=1;whiteSpace=wrap;overflow=hidden;rounded=0;align=center;" vertex="1" parent="1">
          <mxGeometry x="1143.5" y="430" width="190" height="100" as="geometry" />
        </mxCell>
        <mxCell id="c9-E3BqU5SS-ii1urZCW-103" value="" style="endArrow=classic;html=1;rounded=0;exitX=0.5;exitY=0;exitDx=0;exitDy=0;entryX=0.5;entryY=1;entryDx=0;entryDy=0;" edge="1" parent="1" source="c9-E3BqU5SS-ii1urZCW-101" target="c9-E3BqU5SS-ii1urZCW-100">
          <mxGeometry width="50" height="50" relative="1" as="geometry">
            <mxPoint x="1548" y="370" as="sourcePoint" />
            <mxPoint x="1078" y="330" as="targetPoint" />
          </mxGeometry>
        </mxCell>
        <mxCell id="c9-E3BqU5SS-ii1urZCW-104" value="" style="endArrow=classic;html=1;rounded=0;exitX=1;exitY=0;exitDx=0;exitDy=0;" edge="1" parent="1" source="c9-E3BqU5SS-ii1urZCW-101">
          <mxGeometry width="50" height="50" relative="1" as="geometry">
            <mxPoint x="1548" y="370" as="sourcePoint" />
            <mxPoint x="1398" y="360" as="targetPoint" />
          </mxGeometry>
        </mxCell>
        <mxCell id="c9-E3BqU5SS-ii1urZCW-105" value="" style="endArrow=classic;html=1;rounded=0;" edge="1" parent="1">
          <mxGeometry width="50" height="50" relative="1" as="geometry">
            <mxPoint x="1338" y="540" as="sourcePoint" />
            <mxPoint x="1398" y="600" as="targetPoint" />
          </mxGeometry>
        </mxCell>
        <mxCell id="c9-E3BqU5SS-ii1urZCW-106" value="" style="endArrow=classic;html=1;rounded=0;" edge="1" parent="1">
          <mxGeometry width="50" height="50" relative="1" as="geometry">
            <mxPoint x="1138" y="540" as="sourcePoint" />
            <mxPoint x="1078" y="600" as="targetPoint" />
          </mxGeometry>
        </mxCell>
        <mxCell id="c9-E3BqU5SS-ii1urZCW-107" value="" style="endArrow=classic;html=1;rounded=0;exitX=0;exitY=0;exitDx=0;exitDy=0;" edge="1" parent="1" source="c9-E3BqU5SS-ii1urZCW-101">
          <mxGeometry width="50" height="50" relative="1" as="geometry">
            <mxPoint x="1379" y="460" as="sourcePoint" />
            <mxPoint x="1078" y="360" as="targetPoint" />
          </mxGeometry>
        </mxCell>
        <mxCell id="c9-E3BqU5SS-ii1urZCW-108" value="" style="endArrow=classic;html=1;rounded=0;" edge="1" parent="1">
          <mxGeometry width="50" height="50" relative="1" as="geometry">
            <mxPoint x="1238" y="540" as="sourcePoint" />
            <mxPoint x="1238" y="650" as="targetPoint" />
          </mxGeometry>
        </mxCell>
        <mxCell id="c9-E3BqU5SS-ii1urZCW-109" value="&lt;font style=&quot;font-size: 14px;&quot;&gt;&lt;i&gt;Редактировать&lt;/i&gt;&lt;/font&gt;&lt;div&gt;&lt;font style=&quot;font-size: 14px;&quot;&gt;&lt;i&gt;задание&lt;/i&gt;&lt;/font&gt;&lt;/div&gt;" style="rounded=1;whiteSpace=wrap;html=1;fillColor=#d5e8d4;strokeColor=#82b366;" vertex="1" parent="1">
          <mxGeometry x="1398" y="330" width="159" height="60" as="geometry" />
        </mxCell>
        <mxCell id="c9-E3BqU5SS-ii1urZCW-110" value="&lt;font style=&quot;font-size: 14px;&quot;&gt;&lt;i&gt;Изменить иконку события&lt;/i&gt;&lt;/font&gt;" style="rounded=1;whiteSpace=wrap;html=1;fillColor=#d5e8d4;strokeColor=#82b366;" vertex="1" parent="1">
          <mxGeometry x="1398" y="570" width="159" height="60" as="geometry" />
        </mxCell>
        <mxCell id="c9-E3BqU5SS-ii1urZCW-111" value="&lt;font style=&quot;font-size: 14px;&quot;&gt;&lt;i&gt;Установить дедлайн задания&lt;/i&gt;&lt;/font&gt;" style="rounded=1;whiteSpace=wrap;html=1;fillColor=#d5e8d4;strokeColor=#82b366;" vertex="1" parent="1">
          <mxGeometry x="1159" y="650" width="159" height="60" as="geometry" />
        </mxCell>
        <mxCell id="c9-E3BqU5SS-ii1urZCW-112" value="&lt;font style=&quot;font-size: 14px;&quot;&gt;&lt;i&gt;Изменить название события&lt;/i&gt;&lt;/font&gt;" style="rounded=1;whiteSpace=wrap;html=1;fillColor=#d5e8d4;strokeColor=#82b366;" vertex="1" parent="1">
          <mxGeometry x="921" y="330" width="159" height="60" as="geometry" />
        </mxCell>
        <mxCell id="c9-E3BqU5SS-ii1urZCW-113" value="&lt;font style=&quot;font-size: 14px;&quot;&gt;&lt;i&gt;Удалить человека из события&lt;/i&gt;&lt;/font&gt;" style="rounded=1;whiteSpace=wrap;html=1;fillColor=#d5e8d4;strokeColor=#82b366;" vertex="1" parent="1">
          <mxGeometry x="921" y="570" width="159" height="60" as="geometry" />
        </mxCell>
      </root>
    </mxGraphModel>
  </diagram>
</mxfile>
